<svg width="6132" height="1760" viewBox="0 0 6132 1760" fill="none" xmlns="http://www.w3.org/2000/svg">
<g clip-path="url(#clip0_18_2)">
<path d="M221.677 1345.9H243.134V1522.01C243.134 1670.18 26.1353 1670.59 26.1353 1522.01V1345.9H47.5922V1522.01C47.5922 1643.87 221.677 1643.46 221.677 1522.01V1345.9ZM294.895 1429.3H314.327V1464.92C329.712 1437.39 357.646 1426.06 385.581 1425.65C439.021 1425.65 475.862 1458.45 475.862 1513.91V1629.29H456.024V1514.31C456.024 1468.97 428.09 1444.68 384.771 1445.09C343.476 1445.49 314.732 1476.66 314.732 1517.96V1629.29H294.895V1429.3ZM678.365 1588L691.725 1601.36C671.483 1621.6 645.167 1631.32 618.852 1631.32C562.578 1631.32 516.021 1592.45 516.021 1529.29C516.021 1466.14 560.959 1427.27 618.852 1427.27C645.167 1427.27 671.483 1437.39 691.725 1457.23L678.77 1469.78C662.576 1453.59 640.309 1445.89 618.852 1445.89C573.509 1445.89 535.453 1475.45 535.453 1529.29C535.453 1583.14 573.509 1612.69 618.852 1612.69C640.309 1612.69 662.171 1604.19 678.365 1588ZM828.421 1632.12C772.147 1632.12 726.804 1593.26 726.804 1529.7C726.804 1466.14 772.147 1425.65 828.421 1425.65C884.695 1425.65 930.038 1466.14 930.038 1529.7C930.038 1593.26 884.695 1632.12 828.421 1632.12ZM828.421 1612.69C873.764 1612.69 910.606 1581.52 910.606 1529.7C910.606 1477.88 873.764 1444.28 828.421 1444.28C783.078 1444.28 746.237 1477.88 746.237 1529.7C746.237 1581.52 783.078 1612.69 828.421 1612.69ZM1291.89 1629.29H1272.05V1509.46C1272.05 1471 1246.14 1443.87 1208.09 1443.87C1170.03 1443.87 1143.72 1472.21 1143.72 1510.67V1629.29H1123.88V1510.67C1123.88 1472.21 1097.56 1444.28 1059.51 1444.28C1021.45 1444.28 995.541 1472.21 995.541 1510.67V1629.29H975.704V1429.3H994.327L994.732 1462.49C1008.5 1436.18 1034 1425.25 1059.91 1425.25C1090.28 1425.25 1122.26 1439.01 1134 1474.64C1146.14 1441.85 1177.32 1425.25 1208.09 1425.25C1257.07 1425.25 1291.89 1459.66 1291.89 1509.46V1629.29ZM1445.4 1613.91C1490.74 1613.91 1527.18 1585.57 1527.18 1529.29C1527.18 1473.02 1490.74 1445.49 1445.4 1445.49C1398.84 1445.49 1364.43 1480.71 1364.43 1529.7C1364.43 1578.68 1399.65 1613.91 1445.4 1613.91ZM1362.81 1712.69H1343.78V1429.3H1363.22V1476.66C1379.01 1446.3 1410.99 1426.46 1449.85 1426.46C1504.1 1428.49 1547.02 1464.92 1547.02 1529.29C1547.02 1596.5 1501.67 1632.93 1445.4 1632.93C1411.39 1632.93 1379.82 1616.34 1362.81 1583.14V1712.69ZM1595.63 1429.3H1614.25L1615.06 1464.92C1627.61 1437.8 1655.95 1427.27 1681.46 1427.27C1696.43 1426.87 1711.01 1430.92 1724.37 1439.01L1715.46 1455.21C1704.94 1448.73 1693.2 1445.89 1681.46 1445.89C1644.21 1446.3 1615.47 1476.26 1615.47 1512.69V1629.29H1595.63V1429.3ZM1846.47 1632.12C1790.2 1632.12 1744.86 1593.26 1744.86 1529.7C1744.86 1466.14 1790.2 1425.65 1846.47 1425.65C1902.75 1425.65 1948.09 1466.14 1948.09 1529.7C1948.09 1593.26 1902.75 1632.12 1846.47 1632.12ZM1846.47 1612.69C1891.82 1612.69 1928.66 1581.52 1928.66 1529.7C1928.66 1477.88 1891.82 1444.28 1846.47 1444.28C1801.13 1444.28 1764.29 1477.88 1764.29 1529.7C1764.29 1581.52 1801.13 1612.69 1846.47 1612.69ZM2309.94 1629.29H2290.1V1509.46C2290.1 1471 2264.19 1443.87 2226.14 1443.87C2188.08 1443.87 2161.77 1472.21 2161.77 1510.67V1629.29H2141.93V1510.67C2141.93 1472.21 2115.61 1444.28 2077.56 1444.28C2039.5 1444.28 2013.59 1472.21 2013.59 1510.67V1629.29H1993.75V1429.3H2012.38L2012.78 1462.49C2026.55 1436.18 2052.05 1425.25 2077.96 1425.25C2108.33 1425.25 2140.31 1439.01 2152.05 1474.64C2164.2 1441.85 2195.37 1425.25 2226.14 1425.25C2275.12 1425.25 2309.94 1459.66 2309.94 1509.46V1629.29ZM2385.63 1428.49V1629.29H2365.79V1428.49H2385.63ZM2360.12 1364.12C2360.12 1385.17 2392.1 1385.17 2392.1 1364.12C2392.1 1343.06 2360.12 1343.06 2360.12 1364.12ZM2591.88 1452.78L2579.73 1465.73C2559.49 1447.92 2539.65 1444.68 2517.39 1444.68C2486.21 1444.28 2456.25 1456.02 2457.06 1481.52C2457.87 1508.24 2492.69 1513.5 2517.79 1517.96C2553.42 1524.03 2602.4 1530.1 2600.38 1576.66C2599.16 1620.79 2553.42 1632.53 2518.19 1632.53C2482.97 1632.53 2448.16 1619.17 2430.75 1592.45L2445.32 1579.49C2461.92 1603.38 2491.88 1613.5 2518.6 1613.5C2542.89 1613.5 2579.73 1607.02 2580.95 1575.45C2581.76 1546.7 2548.56 1541.03 2515.77 1535.77C2476.9 1529.29 2438.44 1522.01 2438.03 1481.93C2437.63 1442.66 2476.9 1425.65 2517.39 1426.06C2546.53 1426.06 2572.04 1434.15 2591.88 1452.78ZM2664.35 1428.49V1629.29H2644.52V1428.49H2664.35ZM2638.85 1364.12C2638.85 1385.17 2670.83 1385.17 2670.83 1364.12C2670.83 1343.06 2638.85 1343.06 2638.85 1364.12ZM2721.22 1429.3H2740.65V1464.92C2756.03 1437.39 2783.97 1426.06 2811.9 1425.65C2865.34 1425.65 2902.18 1458.45 2902.18 1513.91V1629.29H2882.35V1514.31C2882.35 1468.97 2854.41 1444.68 2811.09 1445.09C2769.8 1445.49 2741.05 1476.66 2741.05 1517.96V1629.29H2721.22V1429.3ZM3095.38 1443.87L3114.81 1421.2L3127.76 1432.53L3108.33 1455.21C3122.5 1470.59 3133.03 1490.83 3133.03 1523.22C3133.03 1558.04 3112.38 1593.26 3079.18 1608.24C3114.4 1620.79 3133.84 1645.48 3133.84 1679.9C3133.84 1733.74 3091.73 1759.65 3038.7 1759.65C2985.66 1759.65 2943.96 1730.5 2943.96 1679.9H2963.8C2963.8 1720.79 2998.62 1740.22 3038.7 1740.22C3078.78 1740.22 3114.4 1722.41 3114.4 1679.9C3114.4 1636.98 3075.94 1619.98 3038.7 1619.98C2980.8 1619.98 2944.77 1576.66 2944.77 1523.22C2944.77 1460.87 2986.88 1425.65 3038.7 1425.65C3058.94 1425.65 3079.99 1432.94 3095.38 1443.87ZM3038.7 1445.49C2997.81 1445.49 2964.61 1471 2964.61 1523.22C2964.61 1564.52 2992.95 1600.14 3038.7 1600.14C3079.99 1600.14 3113.59 1564.52 3113.59 1523.22C3113.59 1472.61 3079.99 1445.49 3038.7 1445.49ZM3289.04 1345.9H3310.9V1608.64H3470.41V1629.29H3289.04V1345.9ZM3527.82 1428.49V1629.29H3507.98V1428.49H3527.82ZM3502.31 1364.12C3502.31 1385.17 3534.3 1385.17 3534.3 1364.12C3534.3 1343.06 3502.31 1343.06 3502.31 1364.12ZM3624.76 1629.29H3605.33V1448.32H3564.44V1430.92H3605.33V1413.1C3605.33 1373.43 3621.12 1344.68 3665.25 1344.68C3680.23 1344.68 3693.59 1349.95 3704.92 1358.45L3695.21 1373.02C3684.27 1366.54 3676.58 1362.9 3664.44 1362.9C3639.34 1362.9 3624.76 1378.29 3624.76 1413.1V1430.92H3690.75V1448.32H3624.76V1629.29ZM3827.57 1632.12C3771.3 1632.12 3725.96 1592.85 3725.96 1529.29C3725.96 1469.38 3771.3 1426.06 3827.57 1426.06C3883.85 1426.06 3934.05 1460.47 3926.35 1538.61H3746.2C3750.25 1585.57 3786.28 1612.69 3827.57 1612.69C3853.89 1612.69 3884.66 1602.17 3899.63 1582.33L3913.8 1593.66C3894.37 1619.17 3859.56 1632.12 3827.57 1632.12ZM3746.2 1521.2H3908.54C3908.14 1471.81 3875.75 1444.28 3827.57 1444.28C3786.28 1444.28 3750.65 1472.21 3746.2 1521.2ZM4223.57 1342.25C4319.11 1342.25 4366.89 1410.27 4366.48 1487.59C4366.48 1522.01 4355.15 1557.63 4333.28 1584.35L4369.32 1619.17L4355.55 1633.34L4319.92 1599.33C4296.85 1619.57 4263.65 1632.12 4223.57 1632.12C4127.22 1632.12 4079.44 1563.3 4080.25 1485.17C4081.06 1409.86 4128.84 1342.25 4223.57 1342.25ZM4223.57 1362.9C4151.51 1362.9 4101.71 1415.94 4101.71 1485.17C4100.9 1552.37 4141.39 1611.48 4223.57 1611.48C4304.54 1611.48 4345.03 1552.77 4345.03 1487.59C4345.03 1420.79 4304.54 1362.9 4223.57 1362.9ZM4586.01 1629.29H4566.58V1593.26C4551.19 1620.79 4523.26 1632.12 4495.33 1632.53C4441.89 1632.53 4405.04 1599.74 4405.04 1544.27V1428.89H4424.88V1543.87C4424.88 1589.21 4452.82 1613.5 4496.13 1613.1C4537.43 1612.69 4566.17 1581.52 4566.17 1540.22V1428.89H4586.01V1629.29ZM4810.78 1429.3H4830.62C4830.62 1496.1 4830.62 1562.49 4830.62 1629.29H4810.78V1586.78C4791.35 1617.96 4761.39 1632.53 4729 1632.53C4673.13 1632.53 4627.38 1590.43 4627.38 1529.29C4627.38 1468.16 4673.13 1426.87 4729 1426.87C4761.39 1426.87 4794.18 1441.85 4810.78 1473.02V1429.3ZM4729 1445.89C4683.66 1445.89 4647.22 1479.09 4647.22 1529.29C4647.22 1579.49 4683.66 1613.1 4729 1613.1C4840.33 1613.1 4840.33 1445.89 4729 1445.89ZM4884.62 1345.9H4904.46V1629.29H4884.62V1345.9ZM4979.58 1428.49V1629.29H4959.74V1428.49H4979.58ZM4954.07 1364.12C4954.07 1385.17 4986.06 1385.17 4986.06 1364.12C4986.06 1343.06 4954.07 1343.06 4954.07 1364.12ZM5062.76 1371L5082.19 1368.97V1429.3H5150.21V1445.89H5082.19V1567.75C5082.19 1594.88 5087.86 1613.91 5119.03 1613.91C5128.75 1613.91 5139.68 1610.67 5149.8 1605.81L5156.68 1622C5144.13 1628.08 5131.58 1632.12 5119.03 1632.12C5076.52 1632.12 5062.76 1607.02 5062.76 1567.75V1445.89H5020.25V1429.3H5062.76V1371ZM5349.51 1429.3H5370.97L5249.11 1712.69H5228.06L5264.9 1626.86L5184.74 1429.3H5206.19L5252.75 1547.51L5276.23 1605.4L5299.31 1547.11L5349.51 1429.3Z" fill="#0E3A22"/>
<path d="M0.0859375 86.016C0.0859375 102.497 4.67416 108.347 26.2804 119.368C40.689 126.72 58.8004 140.766 66.528 150.593C80.4671 168.309 80.5811 172.038 80.5811 605.424C80.5811 1093.9 84.4247 1056.89 30.3857 1088.56C5.29129 1103.27 0.0859375 1109.73 0.0859375 1126.16V1146H261.695H523.304V1126.46C523.304 1110.2 517.609 1103.4 489.577 1086.15C470.895 1074.66 452.891 1057.62 449.222 1047.95C445.291 1037.62 443.312 960.348 444.372 858.508L446.163 686.51L476.349 688.71C518.455 691.776 543.811 708.485 564.759 746.968C574.64 765.14 607.831 862.352 638.513 963.004L694.303 1146H907.307H1120.31V1126.2C1120.31 1110.28 1114.39 1102.33 1090.13 1085.64C1052.86 1059.99 1047.4 1049.49 1002.39 916.968C962.674 800.015 956.328 787.33 916.208 744.641C882.729 709.015 842.233 687.657 773.571 669.418C744.76 661.764 716.661 653.849 711.126 651.823C705.592 649.797 728.232 640.883 761.436 632.008C882.105 599.75 949.922 553.17 987.58 476.672C1008.95 433.272 1009.63 429.294 1009.63 347.9C1009.63 274.026 1007.72 259.698 993.812 228.935C976.385 190.391 928.705 141.712 888.082 120.991C846.325 99.6868 773.027 80.1197 707.773 72.8551C674.568 69.159 501.759 66.1136 323.744 66.08L0.0859375 66.0264V86.016ZM550.136 153.8C608.146 167.162 633.536 209.113 643.718 308.411C652.492 393.944 643.497 484.031 621.348 532.409C607.046 563.654 599.547 571.757 574.815 582.698C544.709 596.013 458.298 611.441 448.33 605.284C441.79 601.239 440.763 157.509 447.283 150.996C454.032 144.241 515.979 145.938 550.136 153.8Z" fill="#0E3A22"/>
<path d="M3712.93 354.924C3605.93 369.151 3516.14 380.903 3513.36 381.044C3510.6 381.185 3508.33 391.153 3508.33 403.194C3508.33 421.433 3512.73 427.805 3534.67 441.362C3549.16 450.317 3564.25 464.752 3568.21 473.453C3572.97 483.904 3575.41 584.04 3575.41 769.185C3575.41 1078.18 3577.3 1064.23 3531.82 1092.34C3513.66 1103.56 3508.33 1111.29 3508.33 1126.43V1146H3743.11H3977.89V1128.97C3977.89 1117.81 3968.62 1103.11 3951.06 1086.4L3924.23 1060.88V788.47V516.068L3949.38 510.97C4019.15 496.83 4068.71 511.56 4079.36 549.601C4087 576.929 4085.97 1034.5 4078.22 1056.75C4074.37 1067.8 4062.29 1083.43 4051.39 1091.49C4037.15 1102.01 4031.55 1111.79 4031.55 1126.08V1146H4266.33H4501.11L4501.09 1127.56C4501.09 1113.01 4494.73 1105.1 4471.08 1090.16C4448.79 1076.07 4439.33 1064.88 4434.24 1046.56C4430.13 1031.75 4427.38 918.182 4427.36 762.303C4427.33 600.957 4424.56 489.84 4420.04 468.724C4409.07 417.643 4376.51 375.047 4330.21 351.261C4295.02 333.176 4285.19 331.278 4226.84 331.258C4137.6 331.238 4062.74 358.324 3965.83 425.712C3942.59 441.865 3922.22 455.086 3920.55 455.086C3918.88 455.086 3917.52 426.41 3917.52 391.361C3917.52 356.312 3915.26 327.958 3912.49 328.347C3909.72 328.736 3819.92 340.696 3712.93 354.924Z" fill="#0E3A22"/>
<path d="M4873.4 331.809C4807.37 338.879 4571.47 389.196 4562.56 398.11C4561.28 399.385 4588.44 454.933 4622.9 521.55C4684.03 639.69 4686.1 642.675 4706.8 642.789C4726.81 642.903 4730.01 639.18 4763.02 577.507C4835.36 442.349 4877.71 393.039 4921.48 393.039C4930.8 393.039 4944.92 399.533 4952.87 407.461C4966.52 421.105 4967.42 429.114 4969.37 555.116L4971.43 688.349L4920.71 699.632C4727.28 742.663 4589.24 817.752 4550.46 901.031C4529.12 946.853 4528.22 1027.88 4548.59 1069.94C4606.72 1190.02 4800.8 1198.06 4942.27 1086.24L4976.81 1058.94L4988.1 1082.73C5012.57 1134.32 5066.48 1159.42 5152.81 1159.42C5222.44 1159.42 5282.53 1146.68 5344.63 1118.75C5382.67 1101.64 5386.55 1098.01 5386.55 1079.58C5386.55 1065.29 5382.08 1056.97 5371.46 1051.51C5363.16 1047.24 5348.07 1036 5337.92 1026.54L5319.47 1009.34L5319.42 821.092C5319.37 612.261 5313.87 543.552 5292.7 486.957C5266.71 417.503 5200.8 366.047 5109.98 344.306C5067.52 334.144 4922.95 326.503 4873.4 331.809ZM4947.32 1004.24C4895.22 1018.63 4841.02 982.827 4832.9 928.667C4824.67 873.797 4859.93 817.886 4934.54 767.469L4967.31 745.333L4969.13 871.523L4970.95 997.719L4947.32 1004.24Z" fill="#0E3A22"/>
<path d="M1465.77 331.809C1399.74 338.879 1163.84 389.196 1154.93 398.11C1153.65 399.385 1180.81 454.933 1215.27 521.55C1276.4 639.69 1278.47 642.675 1299.17 642.789C1319.18 642.903 1322.39 639.18 1355.4 577.507C1427.73 442.349 1470.08 393.039 1513.85 393.039C1523.17 393.039 1537.29 399.533 1545.24 407.461C1558.89 421.105 1559.79 429.114 1561.74 555.116L1563.8 688.349L1513.09 699.632C1319.65 742.663 1181.61 817.752 1142.83 901.031C1121.49 946.853 1120.59 1027.88 1140.96 1069.94C1199.09 1190.02 1393.17 1198.06 1534.64 1086.24L1569.18 1058.94L1580.47 1082.73C1604.94 1134.32 1658.86 1159.42 1745.18 1159.42C1814.82 1159.42 1874.9 1146.68 1937 1118.75C1975.04 1101.64 1978.92 1098.01 1978.92 1079.58C1978.92 1065.29 1974.45 1056.97 1963.83 1051.51C1955.53 1047.24 1940.44 1036 1930.29 1026.54L1911.85 1009.34L1911.79 821.092C1911.74 612.261 1906.24 543.552 1885.07 486.957C1859.08 417.503 1793.18 366.047 1702.35 344.306C1659.9 334.144 1515.32 326.503 1465.77 331.809ZM1539.7 1004.24C1487.6 1018.63 1433.4 982.827 1425.27 928.667C1417.04 873.797 1452.3 817.886 1526.91 767.469L1559.68 745.333L1561.5 871.523L1563.32 997.719L1539.7 1004.24Z" fill="#0E3A22"/>
<path d="M2968.35 325.275C2789.38 354.012 2660.87 469.972 2626.1 634.088C2611.93 700.973 2613.41 804.329 2629.43 866.981C2665.27 1007.12 2766.95 1108.99 2908.65 1146.74C2982.69 1166.47 3108.57 1166.74 3180.56 1147.34C3259.19 1126.13 3357.94 1072.61 3427.42 1013.5C3449.21 994.968 3450.03 992.774 3442.17 973.798C3434.08 954.284 3432.94 953.855 3402.34 958.899C3349.85 967.546 3213.03 965.332 3164.55 955.062C3106.58 942.78 3056.24 917.552 3020.85 883.06C2991.77 854.725 2960.15 793.77 2953.6 753.429L2949.82 730.112H2991.38C3037.41 730.112 3297.42 741.133 3389.27 746.983L3447.96 750.719V681.453C3447.96 640.897 3443.7 595.846 3437.69 572.757C3407.21 455.717 3321.44 372.271 3196.42 337.987C3156.44 327.026 3008.71 318.789 2968.35 325.275ZM3087.07 407.836C3112.61 435.855 3126.44 487.245 3130.79 570.322L3134.54 641.956L3111.81 645.639C3080.37 650.737 2970.91 662.993 2956.61 663.013C2946.67 663.033 2944.87 656.58 2944.89 621.108C2944.91 555.297 2958.24 461.198 2971.99 429.731C2994.15 379.019 3050.95 368.213 3087.07 407.836Z" fill="#0E3A22"/>
<path d="M2367.98 9.45883C2299.87 24.2096 2247.5 53.5165 2201.61 102.565C2154.18 153.277 2123.67 211.683 2103.09 291.205C2088.44 347.753 2087.48 349.323 2046.97 382.098C2013.32 409.332 2005.76 419.085 2005.76 435.265V455.087H2049.36H2092.96V742.528C2092.96 931.772 2090.48 1037.09 2085.69 1050.83C2081.15 1063.84 2067.27 1078.74 2048.8 1090.41C2025.52 1105.11 2019.19 1113.05 2019.19 1127.56L2019.17 1146H2264.01H2508.85V1125.99C2508.85 1108.79 2504.27 1103.66 2476.18 1089.43C2455.7 1079.04 2441.97 1067.12 2439.38 1057.45C2437.1 1048.97 2435.2 909.972 2435.16 748.559L2435.06 455.087H2528.97H2622.89V401.014V346.948L2577.61 351.067C2552.71 353.334 2506.8 357.5 2475.61 360.331L2418.88 365.469L2358.73 314.69C2298.96 264.239 2257.64 213.876 2249.54 181.611C2239.21 140.418 2269.37 113.539 2316.1 122.306C2345.61 127.84 2420.84 176.419 2492 235.898C2573.17 303.736 2568.23 306.526 2641.49 151.68C2675.05 80.7306 2701.51 21.674 2700.27 20.433C2699.03 19.1987 2674.33 13.9666 2645.36 8.80146C2577.91 -3.21915 2424.85 -2.85693 2367.98 9.45883Z" fill="#0E3A22"/>
<path d="M5851.71 709.874C5784.73 724.062 5720.02 777.175 5690.11 842.51C5668.14 890.512 5665.58 963.702 5684.02 1016.96C5699.39 1061.32 5752.28 1120.38 5798.47 1144.75C5828.94 1160.81 5839.87 1162.77 5899.71 1162.77C5959.44 1162.77 5970.93 1160.73 6004.63 1144.19C6049.12 1122.34 6093.15 1077.13 6112.79 1033.15C6134.33 984.893 6136.45 905.317 6117.55 854.209C6097.98 801.283 6035.54 737.685 5986.74 720.969C5945.3 706.775 5888.41 702.1 5851.71 709.874Z" fill="#2DE89F" stroke="#2DE89F" stroke-width="1.33333"/>
</g>
<defs>
<clipPath id="clip0_18_2">
<rect width="6132" height="1760" fill="white"/>
</clipPath>
</defs>
</svg>
